PathFileType	3	(X/Y/Z)	D:\Vicon Setup\UG\Test1\New Session\NewSession16.trc
DataRate	CameraRate	NumFrames	NumMarkers	Units	OrigDataRate	OrigDataStartFrame	OrigNumFrames
100.0	100.0	6	27	mm	100.0	460	357	
Frame#	Time	Sternum			LShoulder			RShoulder			LASIS			RASIS			RPSIS			LPSIS			RKneeLateral			RKneeMedial			RFibulaHead			RMidShank			RAnkleLateral			RAnkleMedial			RHeel			RMT5			RMT2			RToe			LKneeLateral			LKneeMedial			LFibulaHead			LMidShank			LAnkleLateral			LAnkleMedial			LHeel			LMT5			LMT2			LToe			
		X1	Y1	Z1	X2	Y2	Z2	X3	Y3	Z3	X4	Y4	Z4	X5	Y5	Z5	X6	Y6	Z6	X7	Y7	Z7	X8	Y8	Z8	X9	Y9	Z9	X10	Y10	Z10	X11	Y11	Z11	X12	Y12	Z12	X13	Y13	Z13	X14	Y14	Z14	X15	Y15	Z15	X16	Y16	Z16	X17	Y17	Z17	X18	Y18	Z18	X19	Y19	Z19	X20	Y20	Z20	X21	Y21	Z21	X22	Y22	Z22	X23	Y23	Z23	X24	Y24	Z24	X25	Y25	Z25	X26	Y26	Z26	X27	Y27	Z27	
460	4.59	-164.5701	1382.5377	-992.25183	15.091122	1485.6333	-1042.4043	-253.20988	1404.7783	-1171.1251	-35.229706	988.67755	-885.00348	-260.30814	998.85883	-1009.8175	-113.37048	1012.9187	-1124.3384	-1.911662	1004.8393	-1063.9816	-373.4863	606.59399	-1226.2272	-298.30618	523.38666	-1168.9167	-374.45193	570.08563	-1287.472	-273.04956	419.21753	-1344.0598	-206.15189	401.00912	-1535.359	-211.9702	486.13794	-1586.4485	-116.16255	465.74643	-1600.9949	-346.59244	422.59091	-1639.5476	-315.68207	371.72281	-1597.0928	-352.2933	371.19931	-1610.1001	1.3066328	531.86218	-752.23303	-128.49037	514.30127	-759.94702	7.9631181	468.60306	-745.64539	-77.047997	318.80603	-710.78418	-5.1239595	115.57542	-731.87781	-96.175255	132.98726	-712.01196	-47.991253	91.032448	-817.5033	-2.0097723	39.730213	-601.57764	-72.500305	57.553905	-593.64655	-87.809151	41.35033	-556.99084
461	4.6	-165.29663	1374.176	-968.87708	17.028675	1477.3696	-1016.7135	-250.62952	1395.2141	-1151.9443	-30.694946	978.30878	-862.93329	-257.46979	989.2226	-986.52948	-111.28764	1003.2947	-1102.5438	1.7770561	995.60956	-1041.976	-378.97867	592.83655	-1188.2238	-305.6301	510.06912	-1127.0811	-380.24329	556.13318	-1247.7379	-276.51001	407.75296	-1298.9166	-208.22925	386.15088	-1490.2775	-213.8559	470.82144	-1542.6755	-118.29562	449.13547	-1557.7742	-349.46381	408.07251	-1593.4319	-319.02158	357.47321	-1550.5176	-355.9136	358.1658	-1563.859	-6.2659297	523.37653	-724.70575	-131.94862	508.76999	-742.80029	0.60447353	463.03915	-721.18604	-82.425034	307.72891	-708.73779	-6.465148	105.75191	-738.02057	-98.71254	122.85191	-724.12317	-49.03503	77.16851	-822.51599	-1.2390058	39.156345	-602.1015	-72.708565	56.185966	-595.71991	-87.389832	41.78244	-558.03766
462	4.61	-166.55832	1366.8314	-946.71027	18.466984	1469.9023	-990.90942	-248.96832	1387.8907	-1132.655	-27.545759	969.5545	-841.03088	-254.05777	980.00751	-965.23975	-109.15777	993.69946	-1082.4636	5.0972791	987.34338	-1021.7807	-385.0004	578.75232	-1147.8768	-312.27075	497.65756	-1081.6965	-385.8494	541.97675	-1204.7175	-279.56448	396.09518	-1253.0356	-210.44008	367.89777	-1440.1782	-215.19118	451.32648	-1494.6566	-120.15508	427.51669	-1510.1332	-352.42761	390.11203	-1542.2506	-322.53293	339.99542	-1498.6405	-359.03799	340.37918	-1511.8295	-13.209976	516.80701	-702.41418	-134.2787	504.69482	-729.16376	0.0373086	455.9393	-707.94958	-84.326805	302.93777	-701.69806	-7.1876988	103.97004	-736.9115	-101.09473	119.24735	-720.05725	-47.259602	68.251312	-826.16241	-2.1686616	40.126583	-602.59467	-74.106964	55.763084	-597.59839	-88.220596	39.539612	-557.98279
463	4.62	-168.54041	1361.2832	-925.30353	19.346416	1464.0305	-964.97589	-248.3378	1382.799	-1113.1549	-25.008947	963.2262	-820.96295	-251.98796	972.38342	-945.33264	-106.63554	984.87781	-1064.6268	7.7752223	983.34351	-1002.9326	-391.11005	564.9873	-1105.0801	-318.18362	486.94931	-1033.5363	-390.57132	528.5188	-1158.8275	-283.04337	384.54196	-1206.6605	-212.9944	346.24844	-1385.0126	-216.13695	427.85126	-1442.7616	-121.60634	401.27597	-1457.6199	-355.05692	368.08365	-1487.5657	-326.26791	318.88843	-1442.2166	-363.23129	320.56815	-1455.1443	-10.210729	513.05127	-691.22614	-135.78731	499.29242	-720.37469	0.60250199	449.32425	-695.6911	-85.278038	296.25281	-694.13068	-6.7199593	100.41344	-740.91681	-99.86972	116.33614	-723.95197	-44.673676	66.02108	-826.81549	-1.8250135	40.142845	-602.61737	-73.851616	56.101913	-598.2478	-88.235672	40.179836	-558.63135
464	4.63	-170.80435	1357.3809	-904.11273	19.73304	1459.6274	-939.45062	-248.62758	1379.6405	-1093.5067	-23.096308	960.10986	-802.67212	-250.70181	966.18341	-927.81067	-104.5853	977.21326	-1048.2859	9.5621977	983.3399	-985.79968	-395.8894	553.2417	-1059.7893	-324.81818	478.80658	-981.42743	-393.88623	516.58154	-1110.4286	-285.9837	373.7663	-1157.571	-216.26649	321.79443	-1324.8408	-216.74232	400.62601	-1386.9915	-122.88667	370.70114	-1400.141	-357.02267	342.21487	-1429.1951	-329.77133	295.30447	-1381.1783	-366.11359	296.46036	-1394.5198	-5.8779597	510.26755	-680.50958	-133.61714	496.12769	-713.25104	1.2250605	446.62085	-680.71399	-84.826149	293.73071	-686.87445	-4.979847	101.23425	-738.66638	-98.926682	117.22506	-723.43256	-43.651016	65.803864	-826.8396	-1.4819201	40.095062	-602.53607	-73.507561	56.342922	-598.36487	-87.985764	40.26231	-558.68341
465	4.64	-173.30356	1354.525	-883.5578	19.361336	1456.2128	-913.677	-249.57538	1377.7979	-1074.8215	-22.293987	960.34088	-785.43835	-250.23276	961.85718	-911.97705	-103.65494	970.82056	-1031.8856	9.9977636	983.79639	-969.77496	-398.16687	545.35175	-1012.7764	-328.25906	474.72	-927.27307	-395.6788	506.36142	-1060.1952	-288.69943	363.89642	-1106.8534	-219.41037	295.755	-1260.1869	-217.58244	370.11862	-1327.3367	-124.46643	336.87668	-1338.1263	-359.3038	313.00967	-1366.0787	-333.53638	268.84338	-1314.7129	-370.38318	270.28979	-1328.3167	-3.9871595	510.19974	-665.27216	-128.38234	497.19983	-704.43524	2.9546366	447.25156	-667.53259	-82.841301	294.71472	-678.05499	-4.6007004	101.41962	-738.11584	-98.777725	118.30727	-719.93481	-43.932995	66.552048	-826.5564	-1.3918126	40.145771	-602.49207	-73.305313	56.604362	-598.03503	-87.929703	40.271572	-558.56879
